# xmcd CD Database Entry
#
# Track frame offsets:
# 180
# 22169
# 41660
# 61850
# 82269
# 98346
# 119779
# 138803
# 161090
# 177719
# 195000
# 221875
# 243849
# 275075
#
# Disc length: 4011 seconds
#
# Revision: 7
# Processed by: cddbd v1.4PL0 Copyright (c) Steve Scherf et al.
# Submitted via: tcd 2.0b
#
DISCID=cc0fa90e
DTITLE=Elton John - Live At The Ritz 1998
DYEAR=1900
DGENRE=
TTITLE0=Sixty Years On
TTITLE1=Your Song
TTITLE2=The Greatest Discovery
TTITLE3=Talking Old Soldiers
TTITLE4=Come Down In Time
TTITLE5=I Guess That's Why They Call It The Blues
TTITLE6=Sorry Seems To Be The Hardest Word
TTITLE7=Recover Your Soul
TTITLE8=The Last Song
TTITLE9=Daniel
TTITLE10=I Don't Wanna Go On With You Like That
TTITLE11=Live Like Horses
TTITLE12=Don't Let The Sun Go Down On Me
TTITLE13=Something About The Way You Look Tonight
EXTD=
EXTT0=
EXTT1=
EXTT2=
EXTT3=
EXTT4=
EXTT5=
EXTT6=
EXTT7=
EXTT8=
EXTT9=
EXTT10=
EXTT11=
EXTT12=
EXTT13=
PLAYORDER=
